<svg id="Layer_1" data-name="Layer 1" xmlns="http://www.w3.org/2000/svg" viewBox="0 0 257.4 360.22"><defs><style>.cls-1{fill:#5fd7dc;}</style></defs><title>Artboard 1</title><g id="Layer_2" data-name="Layer 2"><g id="Layer_1-2" data-name="Layer 1-2"><path class="cls-1" d="M70.25,132.87l-66,48.94a10.47,10.47,0,0,0-2.13,14.65,10.63,10.63,0,0,0,2.43,2.35L236,358.14a11.65,11.65,0,0,0,18.27-9.46L257.4,85.37a10.71,10.71,0,0,0-4.16-8.6L230.81,59.44A10.71,10.71,0,0,0,213.55,68l.91,223.59L87.09,200.49a10.48,10.48,0,0,1-2.41-14.62,10.14,10.14,0,0,1,1.87-2l19-15.51A10.46,10.46,0,0,0,107,153.63a10.21,10.21,0,0,0-.69-.77L87.58,134.15A13.3,13.3,0,0,0,70.25,132.87Z"/><path class="cls-1" d="M191.16,41.91,95.32,114a8.44,8.44,0,0,0-1.68,11.82c.14.19.3.38.46.56l23.17,25.9a7.2,7.2,0,0,0,10,.68l21.94-18.73a7.93,7.93,0,0,1,13.08,6.31l-1.8,51.76a7.74,7.74,0,0,1-12.86,5.52l-10.58-9.36a8,8,0,0,0-11.29.69l-.12.14-5.21,6.18a8,8,0,0,0,1,11.27l.43.34,66.38,48.45A8.6,8.6,0,0,0,202,248.59V89.22a8.14,8.14,0,0,0-13.29-6.3l-54,44.23a7.22,7.22,0,0,1-10.15-1l-.29-.39h0a8.45,8.45,0,0,1,1.82-11.65l76-57A8.13,8.13,0,0,0,204.43,47l-1.1-2.19a8.15,8.15,0,0,0-10.91-3.68A8.23,8.23,0,0,0,191.16,41.91Z"/><path class="cls-1" d="M221.62,19.81l24.6-18.4A7,7,0,0,1,257.4,7V44.8a7,7,0,0,1-11.27,5.54l-24.6-19a7.27,7.27,0,0,1-1.27-10.19A7.5,7.5,0,0,1,221.62,19.81Z"/></g></g></svg>